AdventPro-blk_wd.ufo
<glyph name="quotesingle" format="1">
  <advance width="149" height="962"/>
  <unicode hex="0027"/>
  <outline>
    <contour>
      <point x="14" y="705" type="line"/>
      <point x="14" y="781"/>
      <point x="135" y="781"/>
      <point x="135" y="705" type="curve"/>
      <point x="117" y="589" type="line"/>
      <point x="32" y="589" type="line"/>
    </contour>
  </outline>
</glyph>
<glyph name="parenright" format="1">
  <advance width="365" height="962"/>
  <unicode hex="0029"/>
  <outline>
    <contour>
      <point x="123" y="819" type="line"/>
      <point x="263" y="766"/>
      <point x="303" y="685"/>
      <point x="303" y="606" type="curve" smooth="yes"/>
      <point x="303" y="95" type="line" smooth="yes"/>
      <point x="303" y="13"/>
      <point x="270" y="-60"/>
      <point x="122" y="-117" type="curve"/>
      <point x="39" y="-35" type="line"/>
      <point x="38" y="-35"/>
      <point x="141" y="-1"/>
      <point x="140" y="104" type="curve"/>
      <point x="140" y="185"/>
      <point x="140" y="323"/>
      <point x="140" y="608" type="curve" smooth="yes"/>
      <point x="140" y="704"/>
      <point x="41" y="731"/>
      <point x="41" y="731" type="curve"/>
    </contour>
  </outline>
</glyph>
<glyph name="period" format="1">
  <advance width="190" height="962"/>
  <unicode hex="002E"/>
  <outline>
    <contour>
      <point x="95" y="137" type="curve" smooth="yes"/>
      <point x="138" y="137"/>
      <point x="173" y="102"/>
      <point x="173" y="60" type="curve" smooth="yes"/>
      <point x="173" y="17"/>
      <point x="138" y="-18"/>
      <point x="95" y="-18" type="curve" smooth="yes"/>
      <point x="51" y="-18"/>
      <point x="17" y="17"/>
      <point x="17" y="60" type="curve" smooth="yes"/>
      <point x="17" y="102"/>
      <point x="51" y="137"/>
    </contour>
  </outline>
</glyph>
<glyph name="four" format="1">
  <advance width="791" height="962"/>
  <unicode hex="0034"/>
  <outline>
    <contour>
      <point x="478" y="0" type="line"/>
      <point x="478" y="244" type="line"/>
      <point x="16" y="244" type="line"/>
      <point x="96" y="700" type="line"/>
      <point x="274" y="700" type="line"/>
      <point x="226" y="414" type="line"/>
      <point x="478" y="414" type="line"/>
      <point x="478" y="700" type="line"/>
      <point x="658" y="700" type="line"/>
      <point x="658" y="414" type="line"/>
      <point x="763" y="414" type="line"/>
      <point x="730" y="244" type="line"/>
      <point x="658" y="244" type="line"/>
      <point x="658" y="0" type="line"/>
    </contour>
  </outline>
</glyph>
<glyph name="six" format="1">
  <advance width="692" height="962"/>
  <unicode hex="0036"/>
  <outline>
    <contour>
      <point x="366" y="541" type="line" smooth="yes"/>
      <point x="291" y="541"/>
      <point x="206" y="515"/>
      <point x="206" y="446" type="curve" smooth="yes"/>
      <point x="206" y="406" type="line"/>
      <point x="206" y="404"/>
      <point x="267" y="425"/>
      <point x="361" y="425" type="curve" smooth="yes"/>
      <point x="545" y="425"/>
      <point x="664" y="345"/>
      <point x="664" y="202" type="curve" smooth="yes"/>
      <point x="664" y="72"/>
      <point x="524" y="-10"/>
      <point x="344" y="-10" type="curve" smooth="yes"/>
      <point x="166" y="-10"/>
      <point x="26" y="73"/>
      <point x="26" y="202" type="curve" smooth="yes"/>
      <point x="26" y="461" type="line" smooth="yes"/>
      <point x="26" y="607"/>
      <point x="173" y="701"/>
      <point x="392" y="701" type="curve" smooth="yes"/>
      <point x="445" y="701" type="line"/>
      <point x="445" y="541" type="line"/>
    </contour>
    <contour>
      <point x="344" y="265" type="curve" smooth="yes"/>
      <point x="266" y="265"/>
      <point x="206" y="246"/>
      <point x="206" y="209" type="curve" smooth="yes"/>
      <point x="206" y="172"/>
      <point x="266" y="156"/>
      <point x="344" y="156" type="curve" smooth="yes"/>
      <point x="422" y="156"/>
      <point x="485" y="172"/>
      <point x="485" y="209" type="curve" smooth="yes"/>
      <point x="485" y="246"/>
      <point x="422" y="265"/>
    </contour>
  </outline>
</glyph>
<glyph name="question" format="1">
  <advance width="612" height="962"/>
  <unicode hex="003F"/>
  <outline>
    <contour>
      <point x="25" y="513" type="line"/>
      <point x="25" y="647"/>
      <point x="147" y="710"/>
      <point x="297" y="710" type="curve" smooth="yes"/>
      <point x="453" y="710"/>
      <point x="582" y="637"/>
      <point x="582" y="523" type="curve" smooth="yes"/>
      <point x="582" y="438"/>
      <point x="527" y="409"/>
      <point x="463" y="356" type="curve" smooth="yes"/>
      <point x="388" y="294"/>
      <point x="367" y="283"/>
      <point x="367" y="211" type="curve" smooth="yes"/>
      <point x="367" y="170" type="line"/>
      <point x="188" y="170" type="line"/>
      <point x="188" y="213" type="line" smooth="yes"/>
      <point x="188" y="309"/>
      <point x="235" y="374"/>
      <point x="292" y="419" type="curve" smooth="yes"/>
      <point x="346" y="463"/>
      <point x="403" y="492"/>
      <point x="403" y="525" type="curve" smooth="yes"/>
      <point x="403" y="551"/>
      <point x="379" y="575"/>
      <point x="301" y="575" type="curve" smooth="yes"/>
      <point x="229" y="575"/>
      <point x="200" y="550"/>
      <point x="200" y="513" type="curve"/>
    </contour>
    <contour>
      <point x="278" y="137" type="curve" smooth="yes"/>
      <point x="321" y="137"/>
      <point x="356" y="102"/>
      <point x="356" y="60" type="curve" smooth="yes"/>
      <point x="356" y="17"/>
      <point x="321" y="-18"/>
      <point x="278" y="-18" type="curve" smooth="yes"/>
      <point x="234" y="-18"/>
      <point x="200" y="17"/>
      <point x="200" y="60" type="curve" smooth="yes"/>
      <point x="200" y="102"/>
      <point x="234" y="137"/>
    </contour>
  </outline>
</glyph>
<glyph name="E" format="1">
  <advance width="579" height="962"/>
  <unicode hex="0045"/>
  <outline>
    <contour>
      <point x="41" y="0" type="line"/>
      <point x="41" y="700" type="line"/>
      <point x="543" y="700" type="line"/>
      <point x="543" y="540" type="line"/>
      <point x="221" y="540" type="line"/>
      <point x="221" y="439" type="line"/>
      <point x="503" y="439" type="line"/>
      <point x="436" y="280" type="line"/>
      <point x="220" y="280" type="line"/>
      <point x="221" y="160" type="line"/>
      <point x="540" y="160" type="line"/>
      <point x="540" y="0" type="line"/>
    </contour>
  </outline>
</glyph>
<glyph name="K" format="1">
  <advance width="745" height="962"/>
  <unicode hex="004B"/>
  <outline>
    <contour>
      <point x="221" y="450" type="line"/>
      <point x="466" y="700" type="line"/>
      <point x="705" y="700" type="line"/>
      <point x="408" y="397" type="line"/>
      <point x="720" y="0" type="line"/>
      <point x="487" y="0" type="line"/>
      <point x="284" y="270" type="line"/>
      <point x="221" y="208" type="line"/>
      <point x="221" y="0" type="line"/>
      <point x="41" y="0" type="line"/>
      <point x="41" y="700" type="line"/>
      <point x="221" y="700" type="line"/>
    </contour>
  </outline>
</glyph>
<glyph name="M" format="1">
  <advance width="920" height="962"/>
  <unicode hex="004D"/>
  <outline>
    <contour>
      <point x="211" y="700" type="line"/>
      <point x="463" y="212" type="line"/>
      <point x="712" y="700" type="line"/>
      <point x="909" y="700" type="line"/>
      <point x="909" y="0" type="line"/>
      <point x="734" y="0" type="line"/>
      <point x="734" y="364" type="line"/>
      <point x="541" y="0" type="line"/>
      <point x="384" y="0" type="line"/>
      <point x="189" y="366" type="line"/>
      <point x="189" y="0" type="line"/>
      <point x="12" y="0" type="line"/>
      <point x="12" y="700" type="line"/>
    </contour>
  </outline>
</glyph>
<glyph name="R" format="1">
  <advance width="733" height="962"/>
  <unicode hex="0052"/>
  <outline>
    <contour>
      <point x="379" y="700" type="line" smooth="yes"/>
      <point x="536" y="700"/>
      <point x="697" y="672"/>
      <point x="697" y="439" type="curve" smooth="yes"/>
      <point x="697" y="321"/>
      <point x="653" y="240"/>
      <point x="581" y="205" type="curve"/>
      <point x="703" y="0" type="line"/>
      <point x="484" y="0" type="line"/>
      <point x="397" y="174" type="line"/>
      <point x="385" y="173"/>
      <point x="336" y="173"/>
      <point x="330" y="173" type="curve" smooth="yes"/>
      <point x="221" y="173" type="line"/>
      <point x="221" y="0" type="line"/>
      <point x="42" y="0" type="line"/>
      <point x="42" y="700" type="line"/>
    </contour>
    <contour>
      <point x="410" y="332" type="line" smooth="yes"/>
      <point x="466" y="332"/>
      <point x="511" y="355"/>
      <point x="511" y="437" type="curve" smooth="yes"/>
      <point x="511" y="506"/>
      <point x="466" y="535"/>
      <point x="410" y="535" type="curve" smooth="yes"/>
      <point x="221" y="535" type="line"/>
      <point x="221" y="332" type="line"/>
    </contour>
  </outline>
</glyph>
<glyph name="a" format="1">
  <advance width="643" height="962"/>
  <unicode hex="0061"/>
  <outline>
    <contour>
      <point x="422" y="368" type="curve"/>
      <point x="422" y="403"/>
      <point x="331" y="420"/>
      <point x="265" y="420" type="curve"/>
      <point x="279" y="510" type="line"/>
      <point x="520" y="510"/>
      <point x="606" y="481"/>
      <point x="606" y="307" type="curve" smooth="yes"/>
      <point x="606" y="0" type="line"/>
      <point x="523" y="-8"/>
      <point x="416" y="-11"/>
      <point x="316" y="-11" type="curve" smooth="yes"/>
      <point x="145" y="-11"/>
      <point x="27" y="18"/>
      <point x="27" y="156" type="curve" smooth="yes"/>
      <point x="27" y="246" type="line" smooth="yes"/>
      <point x="27" y="348"/>
      <point x="111" y="393"/>
      <point x="220" y="393" type="curve" smooth="yes"/>
      <point x="321" y="393"/>
      <point x="394" y="376"/>
    </contour>
    <contour>
      <point x="425" y="230" type="line"/>
      <point x="392" y="235"/>
      <point x="347" y="240"/>
      <point x="297" y="240" type="curve" smooth="yes"/>
      <point x="241" y="240"/>
      <point x="206" y="234"/>
      <point x="206" y="206" type="curve" smooth="yes"/>
      <point x="206" y="192" type="line" smooth="yes"/>
      <point x="206" y="156"/>
      <point x="258" y="151"/>
      <point x="314" y="151" type="curve" smooth="yes"/>
      <point x="364" y="151"/>
      <point x="425" y="154"/>
      <point x="425" y="154" type="curve"/>
    </contour>
  </outline>
</glyph>
<glyph name="k" format="1">
  <advance width="726" height="962"/>
  <unicode hex="006B"/>
  <outline>
    <contour>
      <point x="432" y="276" type="line"/>
      <point x="698" y="0" type="line"/>
      <point x="437" y="0" type="line"/>
      <point x="288" y="170" type="line"/>
      <point x="222" y="120" type="line"/>
      <point x="222" y="0" type="line"/>
      <point x="41" y="0" type="line"/>
      <point x="41" y="700" type="line"/>
      <point x="222" y="700" type="line"/>
      <point x="222" y="324" type="line"/>
      <point x="493" y="538" type="line"/>
      <point x="643" y="433" type="line"/>
    </contour>
  </outline>
</glyph>
<glyph name="o" format="1">
  <advance width="644" height="962"/>
  <unicode hex="006F"/>
  <outline>
    <contour>
      <point x="611" y="185" type="line" smooth="yes"/>
      <point x="611" y="67"/>
      <point x="512" y="-10"/>
      <point x="322" y="-10" type="curve" smooth="yes"/>
      <point x="115" y="-10"/>
      <point x="31" y="67"/>
      <point x="31" y="185" type="curve" smooth="yes"/>
      <point x="31" y="317" type="line" smooth="yes"/>
      <point x="31" y="439"/>
      <point x="134" y="512"/>
      <point x="326" y="512" type="curve" smooth="yes"/>
      <point x="508" y="512"/>
      <point x="611" y="439"/>
      <point x="611" y="317" type="curve" smooth="yes"/>
    </contour>
    <contour>
      <point x="432" y="295" type="line" smooth="yes"/>
      <point x="432" y="330"/>
      <point x="403" y="343"/>
      <point x="326" y="343" type="curve" smooth="yes"/>
      <point x="244" y="343"/>
      <point x="210" y="330"/>
      <point x="210" y="295" type="curve" smooth="yes"/>
      <point x="210" y="207" type="line" smooth="yes"/>
      <point x="210" y="174"/>
      <point x="239" y="159"/>
      <point x="326" y="159" type="curve" smooth="yes"/>
      <point x="403" y="159"/>
      <point x="432" y="173"/>
      <point x="432" y="207" type="curve" smooth="yes"/>
    </contour>
  </outline>
</glyph>
<glyph name="Eth" format="1">
  <advance width="711" height="962"/>
  <unicode hex="00D0"/>
  <outline>
    <component base="D"/>
    <contour>
      <point x="183" y="269" type="line"/>
      <point x="183" y="414" type="line"/>
      <point x="393" y="414" type="line"/>
      <point x="374" y="269" type="line"/>
    </contour>
  </outline>
</glyph>
<glyph name="multiply" format="1">
  <advance width="566" height="962"/>
  <unicode hex="00D7"/>
  <outline>
    <contour>
      <point x="282" y="405" type="line"/>
      <point x="411" y="510" type="line"/>
      <point x="519" y="452" type="line"/>
      <point x="372" y="333" type="line"/>
      <point x="518" y="219" type="line"/>
      <point x="413" y="158" type="line"/>
      <point x="282" y="261" type="line"/>
      <point x="153" y="157" type="line"/>
      <point x="50" y="219" type="line"/>
      <point x="194" y="333" type="line"/>
      <point x="45" y="449" type="line"/>
      <point x="153" y="509" type="line"/>
    </contour>
  </outline>
</glyph>
<glyph name="eth" format="1">
  <advance width="636" height="962"/>
  <unicode hex="00F0"/>
  <outline>
    <contour>
      <point x="219" y="589" type="curve"/>
      <point x="264" y="702" type="line"/>
      <point x="372" y="688"/>
      <point x="468" y="659"/>
      <point x="526" y="619" type="curve" smooth="yes"/>
      <point x="578" y="583"/>
      <point x="608" y="541"/>
      <point x="608" y="481" type="curve" smooth="yes"/>
      <point x="608" y="190" type="line" smooth="yes"/>
      <point x="608" y="43"/>
      <point x="504" y="-9"/>
      <point x="311" y="-9" type="curve" smooth="yes"/>
      <point x="129" y="-9"/>
      <point x="27" y="45"/>
      <point x="27" y="187" type="curve" smooth="yes"/>
      <point x="27" y="246" type="line" smooth="yes"/>
      <point x="27" y="389"/>
      <point x="107" y="438"/>
      <point x="240" y="438" type="curve" smooth="yes"/>
      <point x="310" y="438"/>
      <point x="375" y="435"/>
      <point x="427" y="428" type="curve"/>
      <point x="427" y="481" type="line" smooth="yes"/>
      <point x="427" y="562"/>
      <point x="216" y="589"/>
    </contour>
    <contour>
      <point x="208" y="256" type="curve" smooth="yes"/>
      <point x="208" y="197" type="line" smooth="yes"/>
      <point x="208" y="163"/>
      <point x="245" y="158"/>
      <point x="319" y="158" type="curve" smooth="yes"/>
      <point x="388" y="158"/>
      <point x="428" y="163"/>
      <point x="428" y="197" type="curve" smooth="yes"/>
      <point x="428" y="256" type="line" smooth="yes"/>
      <point x="428" y="289"/>
      <point x="388" y="291"/>
      <point x="319" y="291" type="curve" smooth="yes"/>
      <point x="256" y="291"/>
      <point x="208" y="288"/>
    </contour>
    <contour>
      <point x="562" y="654" type="line"/>
      <point x="295" y="475" type="line"/>
      <point x="252" y="532" type="line"/>
      <point x="521" y="711" type="line"/>
    </contour>
  </outline>
</glyph>
<glyph name="divide" format="1">
  <advance width="381" height="962"/>
  <unicode hex="00F7"/>
  <outline>
    <contour>
      <point x="29" y="321" type="line"/>
      <point x="29" y="437" type="line"/>
      <point x="350" y="437" type="line"/>
      <point x="350" y="321" type="line"/>
    </contour>
    <contour>
      <point x="190" y="638" type="curve" smooth="yes"/>
      <point x="238" y="638"/>
      <point x="279" y="602"/>
      <point x="279" y="553" type="curve" smooth="yes"/>
      <point x="279" y="503"/>
      <point x="238" y="464"/>
      <point x="190" y="464" type="curve" smooth="yes"/>
      <point x="140" y="464"/>
      <point x="101" y="503"/>
      <point x="101" y="553" type="curve" smooth="yes"/>
      <point x="101" y="602"/>
      <point x="140" y="638"/>
    </contour>
    <contour>
      <point x="190" y="296" type="curve" smooth="yes"/>
      <point x="238" y="296"/>
      <point x="279" y="260"/>
      <point x="279" y="211" type="curve" smooth="yes"/>
      <point x="279" y="161"/>
      <point x="238" y="122"/>
      <point x="190" y="122" type="curve" smooth="yes"/>
      <point x="140" y="122"/>
      <point x="101" y="161"/>
      <point x="101" y="211" type="curve" smooth="yes"/>
      <point x="101" y="260"/>
      <point x="140" y="296"/>
    </contour>
  </outline>
</glyph>
<glyph name="lslash" format="1">
  <advance width="464" height="962"/>
  <unicode hex="0142"/>
  <outline>
    <component base="l" xOffset="97.5"/>
    <contour>
      <point x="407" y="490" type="line"/>
      <point x="440" y="386" type="line"/>
      <point x="55" y="252" type="line"/>
      <point x="20" y="357" type="line"/>
    </contour>
  </outline>
</glyph>
<glyph name="eng" format="1">
  <advance width="659" height="962"/>
  <unicode hex="014B"/>
  <outline>
    <contour>
      <point x="619" y="-24" type="line" smooth="yes"/>
      <point x="619" y="-148"/>
      <point x="562" y="-211"/>
      <point x="424" y="-211" type="curve"/>
      <point x="347" y="-89" type="line"/>
      <point x="379" y="-87"/>
      <point x="440" y="-76"/>
      <point x="440" y="-29" type="curve" smooth="yes"/>
      <point x="440" y="296" type="line" smooth="yes"/>
      <point x="440" y="333"/>
      <point x="407" y="339"/>
      <point x="368" y="339" type="curve" smooth="yes"/>
      <point x="316" y="339"/>
      <point x="253" y="331"/>
      <point x="218" y="325" type="curve"/>
      <point x="218" y="0" type="line"/>
      <point x="39" y="0" type="line"/>
      <point x="39" y="501" type="line"/>
      <point x="218" y="501" type="line"/>
      <point x="218" y="478" type="line"/>
      <point x="279" y="498"/>
      <point x="352" y="511"/>
      <point x="413" y="511" type="curve" smooth="yes"/>
      <point x="518" y="511"/>
      <point x="619" y="465"/>
      <point x="619" y="336" type="curve" smooth="yes"/>
    </contour>
  </outline>
</glyph>
<glyph name="dotaccentcomb" format="1">
  <advance width="267" height="962"/>
  <unicode hex="0307"/>
  <outline>
    <contour>
      <point x="134" y="804" type="curve" smooth="yes"/>
      <point x="182" y="804"/>
      <point x="223" y="768"/>
      <point x="223" y="719" type="curve" smooth="yes"/>
      <point x="223" y="669"/>
      <point x="182" y="630"/>
      <point x="134" y="630" type="curve" smooth="yes"/>
      <point x="84" y="630"/>
      <point x="45" y="669"/>
      <point x="45" y="719" type="curve" smooth="yes"/>
      <point x="45" y="768"/>
      <point x="84" y="804"/>
    </contour>
  </outline>
</glyph>
<glyph name="Eta" format="1">
  <advance width="730" height="962"/>
  <unicode hex="0397"/>
  <outline>
    <contour>
      <point x="508" y="438" type="line"/>
      <point x="508" y="700" type="line"/>
      <point x="689" y="700" type="line"/>
      <point x="689" y="0" type="line"/>
      <point x="508" y="0" type="line"/>
      <point x="508" y="280" type="line"/>
      <point x="222" y="280" type="line"/>
      <point x="222" y="0" type="line"/>
      <point x="41" y="0" type="line"/>
      <point x="41" y="700" type="line"/>
      <point x="222" y="700" type="line"/>
      <point x="222" y="438" type="line"/>
    </contour>
  </outline>
</glyph>
<glyph name="Phi" format="1">
  <advance width="941" height="962"/>
  <unicode hex="03A6"/>
  <outline>
    <contour>
      <point x="253" y="621" type="line"/>
      <point x="219" y="596"/>
      <point x="211" y="576"/>
      <point x="211" y="498" type="curve" smooth="yes"/>
      <point x="211" y="215" type="line" smooth="yes"/>
      <point x="211" y="177"/>
      <point x="227" y="163"/>
      <point x="268" y="163" type="curve" smooth="yes"/>
      <point x="380" y="163" type="line"/>
      <point x="380" y="551" type="line" smooth="yes"/>
      <point x="380" y="622"/>
      <point x="447" y="712"/>
      <point x="632" y="712" type="curve" smooth="yes"/>
      <point x="810" y="712"/>
      <point x="906" y="644"/>
      <point x="906" y="512" type="curve" smooth="yes"/>
      <point x="906" y="227" type="line" smooth="yes"/>
      <point x="906" y="96"/>
      <point x="847" y="13"/>
      <point x="654" y="13" type="curve" smooth="yes"/>
      <point x="559" y="13" type="line"/>
      <point x="559" y="-35" type="line"/>
      <point x="380" y="-22" type="line"/>
      <point x="380" y="13" type="line"/>
      <point x="284" y="13" type="line" smooth="yes"/>
      <point x="81" y="13"/>
      <point x="32" y="109"/>
      <point x="32" y="227" type="curve" smooth="yes"/>
      <point x="32" y="518" type="line" smooth="yes"/>
      <point x="32" y="618"/>
      <point x="66" y="669"/>
      <point x="163" y="707" type="curve"/>
    </contour>
    <contour>
      <point x="674" y="163" type="line" smooth="yes"/>
      <point x="709" y="163"/>
      <point x="730" y="179"/>
      <point x="730" y="213" type="curve" smooth="yes"/>
      <point x="730" y="505" type="line" smooth="yes"/>
      <point x="730" y="547"/>
      <point x="700" y="562"/>
      <point x="637" y="562" type="curve" smooth="yes"/>
      <point x="585" y="562"/>
      <point x="559" y="541"/>
      <point x="559" y="513" type="curve" smooth="yes"/>
      <point x="559" y="163" type="line"/>
    </contour>
  </outline>
</glyph>
<glyph name="zeta" format="1">
  <advance width="655" height="962"/>
  <unicode hex="03B6"/>
  <outline>
    <contour>
      <point x="607" y="523" type="line"/>
      <point x="537" y="498"/>
      <point x="420" y="428"/>
      <point x="368" y="390" type="curve" smooth="yes"/>
      <point x="301" y="341"/>
      <point x="219" y="277"/>
      <point x="219" y="217" type="curve" smooth="yes"/>
      <point x="219" y="198"/>
      <point x="230" y="182"/>
      <point x="257" y="172" type="curve" smooth="yes"/>
      <point x="316" y="150"/>
      <point x="436" y="160"/>
      <point x="607" y="160" type="curve"/>
      <point x="607" y="-216" type="line"/>
      <point x="426" y="-191" type="line"/>
      <point x="426" y="-6" type="line"/>
      <point x="282" y="-6"/>
      <point x="176" y="5"/>
      <point x="107" y="50" type="curve" smooth="yes"/>
      <point x="55" y="84"/>
      <point x="26" y="139"/>
      <point x="26" y="195" type="curve" smooth="yes"/>
      <point x="26" y="260"/>
      <point x="39" y="316"/>
      <point x="125" y="403" type="curve" smooth="yes"/>
      <point x="154" y="432"/>
      <point x="229" y="494"/>
      <point x="280" y="522" type="curve"/>
      <point x="131" y="522" type="line"/>
      <point x="131" y="702" type="line"/>
      <point x="542" y="702" type="line"/>
    </contour>
  </outline>
</glyph>
<glyph name="tau" format="1">
  <advance width="573" height="962"/>
  <unicode hex="03C4"/>
  <outline>
    <contour>
      <point x="380" y="220" type="line" smooth="yes"/>
      <point x="380" y="159"/>
      <point x="426" y="153"/>
      <point x="486" y="153" type="curve"/>
      <point x="425" y="-13" type="line"/>
      <point x="242" y="-12"/>
      <point x="200" y="91"/>
      <point x="200" y="169" type="curve" smooth="yes"/>
      <point x="200" y="343" type="line"/>
      <point x="35" y="343" type="line"/>
      <point x="35" y="501" type="line"/>
      <point x="537" y="501" type="line"/>
      <point x="537" y="343" type="line"/>
      <point x="380" y="343" type="line"/>
    </contour>
  </outline>
</glyph>
<glyph name="uni0409" format="1">
  <advance width="1240" height="962"/>
  <unicode hex="0409"/>
  <outline>
    <contour>
      <point x="989" y="412" type="line" smooth="yes"/>
      <point x="1099" y="412"/>
      <point x="1208" y="366"/>
      <point x="1208" y="264" type="curve" smooth="yes"/>
      <point x="1208" y="156" type="line" smooth="yes"/>
      <point x="1208" y="27"/>
      <point x="1079" y="-12"/>
      <point x="907" y="-12" type="curve" smooth="yes"/>
      <point x="787" y="-12"/>
      <point x="634" y="-1"/>
      <point x="634" y="-1" type="curve"/>
      <point x="634" y="540" type="line"/>
      <point x="558" y="540" type="line" smooth="yes"/>
      <point x="530" y="540"/>
      <point x="511" y="526"/>
      <point x="494" y="487" type="curve" smooth="yes"/>
      <point x="359" y="180" type="line" smooth="yes"/>
      <point x="308" y="65"/>
      <point x="262" y="-3"/>
      <point x="130" y="-23" type="curve"/>
      <point x="21" y="84" type="line"/>
      <point x="93" y="103"/>
      <point x="137" y="129"/>
      <point x="169" y="198" type="curve" smooth="yes"/>
      <point x="332" y="556" type="line" smooth="yes"/>
      <point x="362" y="620"/>
      <point x="385" y="700"/>
      <point x="565" y="700" type="curve" smooth="yes"/>
      <point x="815" y="700" type="line"/>
      <point x="815" y="412" type="line"/>
    </contour>
    <contour>
      <point x="1027" y="179" type="curve" smooth="yes"/>
      <point x="1027" y="223" type="line" smooth="yes"/>
      <point x="1027" y="248"/>
      <point x="1017" y="254"/>
      <point x="994" y="254" type="curve" smooth="yes"/>
      <point x="815" y="254" type="line"/>
      <point x="815" y="147" type="line"/>
      <point x="876" y="144"/>
      <point x="968" y="144"/>
      <point x="993" y="146" type="curve" smooth="yes"/>
      <point x="1014" y="148"/>
      <point x="1027" y="151"/>
    </contour>
  </outline>
</glyph>
<glyph name="uni0426" format="1">
  <advance width="874" height="962"/>
  <unicode hex="0426"/>
  <outline>
    <contour>
      <point x="687" y="160" type="line"/>
      <point x="849" y="160" type="line"/>
      <point x="849" y="-125" type="line"/>
      <point x="682" y="-125" type="line"/>
      <point x="670" y="0" type="line"/>
      <point x="40" y="0" type="line"/>
      <point x="40" y="700" type="line"/>
      <point x="220" y="700" type="line"/>
      <point x="220" y="160" type="line"/>
      <point x="506" y="160" type="line"/>
      <point x="506" y="700" type="line"/>
      <point x="687" y="700" type="line"/>
    </contour>
  </outline>
</glyph>
<glyph name="uni0428" format="1">
  <advance width="973" height="962"/>
  <unicode hex="0428"/>
  <outline>
    <contour>
      <point x="750" y="700" type="line"/>
      <point x="932" y="700" type="line"/>
      <point x="932" y="0" type="line"/>
      <point x="44" y="0" type="line"/>
      <point x="44" y="700" type="line"/>
      <point x="224" y="700" type="line"/>
      <point x="224" y="160" type="line"/>
      <point x="398" y="160" type="line"/>
      <point x="398" y="700" type="line"/>
      <point x="578" y="700" type="line"/>
      <point x="578" y="160" type="line"/>
      <point x="750" y="160" type="line"/>
    </contour>
  </outline>
</glyph>
<glyph name="uni042E" format="1">
  <advance width="1004" height="962"/>
  <unicode hex="042E"/>
  <outline>
    <component base="O" xOffset="300.5"/>
    <component base="I" xOffset="-109.5"/>
    <contour>
      <point x="426" y="433" type="line"/>
      <point x="426" y="273" type="line"/>
      <point x="99" y="273" type="line"/>
      <point x="99" y="433" type="line"/>
    </contour>
  </outline>
</glyph>
<glyph name="uni0432" format="1">
  <advance width="672" height="962"/>
  <unicode hex="0432"/>
  <outline>
    <contour>
      <point x="574" y="270" type="curve"/>
      <point x="617" y="246"/>
      <point x="643" y="205"/>
      <point x="643" y="152" type="curve" smooth="yes"/>
      <point x="643" y="44"/>
      <point x="551" y="-12"/>
      <point x="358" y="-12" type="curve" smooth="yes"/>
      <point x="257" y="-12"/>
      <point x="34" y="0"/>
      <point x="34" y="0" type="curve"/>
      <point x="34" y="501" type="line"/>
      <point x="34" y="501"/>
      <point x="170" y="512"/>
      <point x="355" y="512" type="curve" smooth="yes"/>
      <point x="499" y="512"/>
      <point x="623" y="490"/>
      <point x="623" y="365" type="curve" smooth="yes"/>
      <point x="623" y="331"/>
      <point x="608" y="294"/>
    </contour>
    <contour>
      <point x="401" y="361" type="curve" smooth="yes"/>
      <point x="355" y="364"/>
      <point x="257" y="361"/>
      <point x="217" y="360" type="curve"/>
      <point x="217" y="324" type="line"/>
      <point x="387" y="324" type="line" smooth="yes"/>
      <point x="420" y="324"/>
      <point x="433" y="335"/>
      <point x="433" y="343" type="curve" smooth="yes"/>
      <point x="433" y="354"/>
      <point x="419" y="360"/>
    </contour>
    <contour>
      <point x="425" y="149" type="curve" smooth="yes"/>
      <point x="444" y="149"/>
      <point x="460" y="155"/>
      <point x="460" y="168" type="curve" smooth="yes"/>
      <point x="460" y="180"/>
      <point x="445" y="186"/>
      <point x="421" y="186" type="curve" smooth="yes"/>
      <point x="217" y="186" type="line"/>
      <point x="217" y="150" type="line"/>
      <point x="257" y="149"/>
      <point x="409" y="149"/>
    </contour>
  </outline>
</glyph>
<glyph name="uni043C" format="1">
  <advance width="922" height="962"/>
  <unicode hex="043C"/>
  <outline>
    <contour>
      <point x="695" y="500" type="line"/>
      <point x="886" y="500" type="line"/>
      <point x="886" y="-1" type="line"/>
      <point x="706" y="-1" type="line"/>
      <point x="706" y="222" type="line"/>
      <point x="551" y="0" type="line"/>
      <point x="372" y="1" type="line"/>
      <point x="217" y="222" type="line"/>
      <point x="217" y="-1" type="line"/>
      <point x="36" y="-1" type="line"/>
      <point x="36" y="500" type="line"/>
      <point x="230" y="500" type="line"/>
      <point x="465" y="169" type="line"/>
    </contour>
  </outline>
</glyph>
<glyph name="uni044D" format="1">
  <advance width="545" height="962"/>
  <unicode hex="044D"/>
  <outline>
    <contour>
      <point x="78" y="337" type="curve"/>
      <point x="35" y="479" type="line"/>
      <point x="96" y="498"/>
      <point x="164" y="511"/>
      <point x="230" y="512" type="curve" smooth="yes"/>
      <point x="416" y="515"/>
      <point x="516" y="433"/>
      <point x="516" y="320" type="curve" smooth="yes"/>
      <point x="516" y="174" type="line" smooth="yes"/>
      <point x="516" y="45"/>
      <point x="401" y="-8"/>
      <point x="228" y="-12" type="curve" smooth="yes"/>
      <point x="161" y="-13"/>
      <point x="93" y="-6"/>
      <point x="32" y="5" type="curve"/>
      <point x="66" y="161" type="line"/>
      <point x="63" y="161"/>
      <point x="158" y="144"/>
      <point x="210" y="144" type="curve" smooth="yes"/>
      <point x="284" y="144"/>
      <point x="336" y="146"/>
      <point x="336" y="206" type="curve" smooth="yes"/>
      <point x="336" y="297" type="line" smooth="yes"/>
      <point x="336" y="356"/>
      <point x="282" y="354"/>
      <point x="212" y="353" type="curve" smooth="yes"/>
      <point x="165" y="352"/>
      <point x="106" y="344"/>
    </contour>
    <contour>
      <point x="131" y="176" type="line"/>
      <point x="92" y="321" type="line"/>
      <point x="464" y="321" type="line"/>
      <point x="464" y="176" type="line"/>
    </contour>
  </outline>
</glyph>
<glyph name="uni0454" format="1">
  <advance width="545" height="962"/>
  <unicode hex="0454"/>
  <outline>
    <contour>
      <point x="417" y="176" type="line"/>
      <point x="84" y="176" type="line"/>
      <point x="84" y="321" type="line"/>
      <point x="456" y="321" type="line"/>
    </contour>
    <contour>
      <point x="470" y="337" type="line"/>
      <point x="442" y="344"/>
      <point x="383" y="352"/>
      <point x="336" y="353" type="curve" smooth="yes"/>
      <point x="266" y="354"/>
      <point x="212" y="356"/>
      <point x="212" y="297" type="curve" smooth="yes"/>
      <point x="212" y="206" type="line" smooth="yes"/>
      <point x="212" y="146"/>
      <point x="264" y="144"/>
      <point x="338" y="144" type="curve" smooth="yes"/>
      <point x="390" y="144"/>
      <point x="485" y="161"/>
      <point x="482" y="161" type="curve"/>
      <point x="516" y="5" type="line"/>
      <point x="455" y="-6"/>
      <point x="387" y="-13"/>
      <point x="320" y="-12" type="curve" smooth="yes"/>
      <point x="147" y="-8"/>
      <point x="32" y="45"/>
      <point x="32" y="174" type="curve" smooth="yes"/>
      <point x="32" y="320" type="line" smooth="yes"/>
      <point x="32" y="433"/>
      <point x="132" y="515"/>
      <point x="318" y="512" type="curve" smooth="yes"/>
      <point x="384" y="511"/>
      <point x="452" y="498"/>
      <point x="513" y="479" type="curve"/>
    </contour>
  </outline>
</glyph>
<glyph name="uni049A" format="1">
  <advance width="749" height="962"/>
  <unicode hex="049A"/>
  <outline>
    <component base="K"/>
    <contour>
      <point x="528" y="149" type="line"/>
      <point x="732" y="149" type="line"/>
      <point x="732" y="-125" type="line"/>
      <point x="562" y="-125" type="line"/>
      <point x="550" y="0" type="line"/>
      <point x="528" y="0" type="line"/>
    </contour>
  </outline>
</glyph>
<glyph name="uni049B" format="1">
  <advance width="764" height="962"/>
  <unicode hex="049B"/>
  <outline>
    <contour>
      <point x="731" y="0" type="line"/>
      <point x="470" y="0" type="line"/>
      <point x="291" y="171" type="line"/>
      <point x="220" y="115" type="line"/>
      <point x="220" y="0" type="line"/>
      <point x="40" y="0" type="line"/>
      <point x="40" y="512" type="line"/>
      <point x="220" y="500" type="line"/>
      <point x="220" y="319" type="line"/>
      <point x="462" y="500" type="line"/>
      <point x="726" y="500" type="line"/>
      <point x="433" y="278" type="line"/>
    </contour>
    <contour>
      <point x="541" y="149" type="line"/>
      <point x="745" y="149" type="line"/>
      <point x="745" y="-125" type="line"/>
      <point x="575" y="-125" type="line"/>
      <point x="563" y="0" type="line"/>
      <point x="541" y="0" type="line"/>
    </contour>
  </outline>
</glyph>
<glyph name="uni049D" format="1">
  <advance width="748" height="962"/>
  <unicode hex="049D"/>
  <outline>
    <contour>
      <point x="725" y="148" type="curve"/>
      <point x="725" y="0" type="line"/>
      <point x="607" y="0"/>
      <point x="564" y="14"/>
      <point x="507" y="100" type="curve" smooth="yes"/>
      <point x="430" y="216" type="line"/>
      <point x="393" y="214" type="line"/>
      <point x="393" y="157" type="line"/>
      <point x="272" y="157" type="line"/>
      <point x="272" y="214" type="line"/>
      <point x="218" y="214" type="line"/>
      <point x="218" y="0" type="line"/>
      <point x="38" y="0" type="line"/>
      <point x="38" y="512" type="line"/>
      <point x="218" y="500" type="line"/>
      <point x="218" y="367" type="line"/>
      <point x="272" y="367" type="line"/>
      <point x="272" y="423" type="line"/>
      <point x="393" y="423" type="line"/>
      <point x="393" y="367" type="line"/>
      <point x="446" y="367" type="line"/>
      <point x="540" y="500" type="line"/>
      <point x="732" y="500" type="line"/>
      <point x="585" y="288" type="line"/>
      <point x="657" y="186" type="line" smooth="yes"/>
      <point x="673" y="162"/>
      <point x="697" y="148"/>
    </contour>
  </outline>
</glyph>
<glyph name="uni04A1" format="1">
  <advance width="887" height="962"/>
  <unicode hex="04A1"/>
  <outline>
    <contour>
      <point x="0" y="500" type="line"/>
      <point x="272" y="500" type="line"/>
      <point x="272" y="350" type="line"/>
      <point x="180" y="350" type="line"/>
      <point x="0" y="352" type="line"/>
    </contour>
    <contour>
      <point x="713" y="185" type="line" smooth="yes"/>
      <point x="749" y="161"/>
      <point x="792" y="148"/>
      <point x="860" y="148" type="curve" smooth="yes"/>
      <point x="864" y="148" type="line"/>
      <point x="864" y="0" type="line"/>
      <point x="790" y="0" type="line" smooth="yes"/>
      <point x="676" y="0"/>
      <point x="625" y="38"/>
      <point x="564" y="80" type="curve" smooth="yes"/>
      <point x="431" y="171" type="line"/>
      <point x="360" y="115" type="line"/>
      <point x="360" y="0" type="line"/>
      <point x="180" y="0" type="line"/>
      <point x="180" y="501" type="line"/>
      <point x="360" y="500" type="line"/>
      <point x="360" y="319" type="line"/>
      <point x="602" y="500" type="line"/>
      <point x="866" y="500" type="line"/>
      <point x="573" y="278" type="line"/>
    </contour>
  </outline>
</glyph>
<glyph name="uni04A3" format="1">
  <advance width="730" height="962"/>
  <unicode hex="04A3"/>
  <outline>
    <component base="uni043D"/>
    <contour>
      <point x="501" y="149" type="line"/>
      <point x="714" y="149" type="line"/>
      <point x="714" y="-125" type="line"/>
      <point x="544" y="-125" type="line"/>
      <point x="532" y="0" type="line"/>
      <point x="501" y="0" type="line"/>
    </contour>
  </outline>
</glyph>
<glyph name="uni04AF" format="1">
  <advance width="701" height="962"/>
  <unicode hex="04AF"/>
  <outline>
    <contour>
      <point x="668" y="500" type="line"/>
      <point x="441" y="0" type="line"/>
      <point x="441" y="-218" type="line"/>
      <point x="260" y="-194" type="line"/>
      <point x="260" y="0" type="line"/>
      <point x="32" y="500" type="line"/>
      <point x="230" y="500" type="line"/>
      <point x="354" y="200" type="line"/>
      <point x="470" y="500" type="line"/>
    </contour>
  </outline>
</glyph>
<glyph name="uni04B7" format="1">
  <advance width="740" height="962"/>
  <unicode hex="04B7"/>
  <outline>
    <component base="uni0447"/>
    <contour>
      <point x="513" y="149" type="line"/>
      <point x="726" y="149" type="line"/>
      <point x="726" y="-125" type="line"/>
      <point x="556" y="-125" type="line"/>
      <point x="544" y="0" type="line"/>
      <point x="513" y="0" type="line"/>
    </contour>
  </outline>
</glyph>
<glyph name="uni04B9" format="1">
  <advance width="695" height="962"/>
  <unicode hex="04B9"/>
  <outline>
    <contour>
      <point x="437" y="0" type="line"/>
      <point x="437" y="134" type="line"/>
      <point x="411" y="121"/>
      <point x="351" y="107"/>
      <point x="243" y="107" type="curve" smooth="yes"/>
      <point x="161" y="107"/>
      <point x="32" y="143"/>
      <point x="32" y="272" type="curve" smooth="yes"/>
      <point x="32" y="500" type="line"/>
      <point x="212" y="500" type="line"/>
      <point x="212" y="302" type="line" smooth="yes"/>
      <point x="212" y="271"/>
      <point x="249" y="259"/>
      <point x="314" y="259" type="curve" smooth="yes"/>
      <point x="388" y="259"/>
      <point x="437" y="273"/>
      <point x="437" y="306" type="curve" smooth="yes"/>
      <point x="437" y="353" type="line" smooth="yes"/>
      <point x="437" y="422"/>
      <point x="453" y="513"/>
      <point x="628" y="513" type="curve"/>
      <point x="691" y="385" type="line"/>
      <point x="632" y="377"/>
      <point x="617" y="348"/>
      <point x="617" y="314" type="curve" smooth="yes"/>
      <point x="617" y="0" type="line"/>
    </contour>
    <contour>
      <point x="272" y="338" type="line"/>
      <point x="378" y="338" type="line"/>
      <point x="378" y="33" type="line"/>
      <point x="272" y="33" type="line"/>
    </contour>
  </outline>
</glyph>
<glyph name="uni04F7" format="1">
  <advance width="457" height="962"/>
  <unicode hex="04F7"/>
  <outline>
    <component base="uni0433"/>
    <contour>
      <point x="121" y="149" type="line"/>
      <point x="301" y="149" type="line"/>
      <point x="301" y="-125" type="line"/>
      <point x="159" y="-125" type="line"/>
      <point x="148" y="0" type="line"/>
      <point x="121" y="0" type="line"/>
    </contour>
  </outline>
</glyph>
<glyph name="quoteleft" format="1">
  <advance width="177" height="962"/>
  <unicode hex="2018"/>
  <outline>
    <contour>
      <point x="130" y="713" type="line"/>
      <point x="120" y="697"/>
      <point x="111" y="679"/>
      <point x="107" y="669" type="curve"/>
      <point x="142" y="660"/>
      <point x="167" y="631"/>
      <point x="167" y="595" type="curve" smooth="yes"/>
      <point x="167" y="552"/>
      <point x="132" y="517"/>
      <point x="88" y="517" type="curve" smooth="yes"/>
      <point x="47" y="517"/>
      <point x="13" y="552"/>
      <point x="13" y="595" type="curve" smooth="yes"/>
      <point x="13" y="697"/>
      <point x="102" y="735"/>
      <point x="100" y="735" type="curve"/>
    </contour>
  </outline>
</glyph>
<glyph name="uni20B4" format="1">
  <advance width="819" height="962"/>
  <unicode hex="20B4"/>
  <outline>
    <contour>
      <point x="70" y="427" type="line"/>
      <point x="82" y="511" type="line"/>
      <point x="715" y="427" type="line"/>
      <point x="703" y="343" type="line"/>
    </contour>
    <contour>
      <point x="41" y="310" type="line"/>
      <point x="53" y="394" type="line"/>
      <point x="686" y="310" type="line"/>
      <point x="673" y="226" type="line"/>
    </contour>
    <contour>
      <point x="176" y="533" type="curve"/>
      <point x="132" y="673" type="line"/>
      <point x="206" y="699"/>
      <point x="290" y="710"/>
      <point x="373" y="710" type="curve" smooth="yes"/>
      <point x="525" y="710"/>
      <point x="726" y="668"/>
      <point x="726" y="513" type="curve" smooth="yes"/>
      <point x="726" y="291"/>
      <point x="214" y="281"/>
      <point x="214" y="199" type="curve" smooth="yes"/>
      <point x="214" y="162"/>
      <point x="285" y="148"/>
      <point x="390" y="148" type="curve" smooth="yes"/>
      <point x="496" y="148"/>
      <point x="596" y="165"/>
      <point x="671" y="210" type="curve"/>
      <point x="754" y="88" type="line"/>
      <point x="655" y="22"/>
      <point x="531" y="-12"/>
      <point x="402" y="-12" type="curve" smooth="yes"/>
      <point x="202" y="-12"/>
      <point x="27" y="46"/>
      <point x="27" y="214" type="curve" smooth="yes"/>
      <point x="27" y="432"/>
      <point x="540" y="437"/>
      <point x="540" y="519" type="curve" smooth="yes"/>
      <point x="540" y="553"/>
      <point x="451" y="557"/>
      <point x="376" y="557" type="curve" smooth="yes"/>
      <point x="298" y="557"/>
      <point x="241" y="550"/>
    </contour>
  </outline>
</glyph>
<glyph name="y_lower_alt" format="1">
  <advance width="725" height="962"/>
  <unicode hex="9998"/>
  <outline>
    <contour>
      <point x="181" y="-209" type="line"/>
      <point x="268" y="-24" type="line"/>
      <point x="20" y="500" type="line"/>
      <point x="216" y="500" type="line"/>
      <point x="363" y="185" type="line"/>
      <point x="509" y="500" type="line"/>
      <point x="704" y="500" type="line"/>
      <point x="376" y="-209" type="line"/>
    </contour>
  </outline>
</glyph>
<glyph name="ff" format="1">
  <advance width="919" height="962"/>
  <unicode hex="FB00"/>
  <outline>
    <contour>
      <point x="844" y="534" type="line"/>
      <point x="817" y="538"/>
      <point x="774" y="541"/>
      <point x="750" y="541" type="curve" smooth="yes"/>
      <point x="705" y="541"/>
      <point x="663" y="542"/>
      <point x="663" y="512" type="curve" smooth="yes"/>
      <point x="663" y="501" type="line"/>
      <point x="859" y="501" type="line"/>
      <point x="817" y="321" type="line"/>
      <point x="663" y="321" type="line"/>
      <point x="663" y="0" type="line"/>
      <point x="484" y="0" type="line"/>
      <point x="484" y="501" type="line" smooth="yes"/>
      <point x="484" y="510"/>
      <point x="485" y="515"/>
      <point x="486" y="524" type="curve"/>
      <point x="438" y="534"/>
      <point x="387" y="541"/>
      <point x="309" y="541" type="curve" smooth="yes"/>
      <point x="263" y="541"/>
      <point x="221" y="542"/>
      <point x="221" y="512" type="curve" smooth="yes"/>
      <point x="221" y="501" type="line"/>
      <point x="419" y="501" type="line"/>
      <point x="374" y="321" type="line"/>
      <point x="221" y="321" type="line"/>
      <point x="221" y="0" type="line"/>
      <point x="40" y="0" type="line"/>
      <point x="40" y="522" type="line" smooth="yes"/>
      <point x="40" y="637"/>
      <point x="97" y="712"/>
      <point x="306" y="712" type="curve" smooth="yes"/>
      <point x="399" y="712"/>
      <point x="467" y="700"/>
      <point x="555" y="677" type="curve"/>
      <point x="577" y="693"/>
      <point x="622" y="713"/>
      <point x="717" y="713" type="curve" smooth="yes"/>
      <point x="777" y="713"/>
      <point x="839" y="707"/>
      <point x="885" y="697" type="curve"/>
    </contour>
  </outline>
</glyph>
<glyph name="fi" format="1">
  <advance width="680" height="962"/>
  <unicode hex="FB01"/>
  <outline>
    <contour>
      <point x="645" y="520" type="line"/>
      <point x="518" y="539"/>
      <point x="428" y="547"/>
      <point x="329" y="548" type="curve" smooth="yes"/>
      <point x="260" y="549"/>
      <point x="221" y="540"/>
      <point x="221" y="512" type="curve" smooth="yes"/>
      <point x="221" y="501" type="line"/>
      <point x="419" y="501" type="line"/>
      <point x="373" y="321" type="line"/>
      <point x="221" y="321" type="line"/>
      <point x="221" y="0" type="line"/>
      <point x="40" y="0" type="line"/>
      <point x="40" y="523" type="line" smooth="yes"/>
      <point x="40" y="646"/>
      <point x="124" y="713"/>
      <point x="301" y="713" type="curve" smooth="yes"/>
      <point x="467" y="713"/>
      <point x="546" y="689"/>
      <point x="645" y="666" type="curve"/>
    </contour>
    <contour>
      <point x="645" y="0" type="line"/>
      <point x="465" y="0" type="line"/>
      <point x="465" y="501" type="line"/>
      <point x="645" y="501" type="line"/>
    </contour>
  </outline>
</glyph>
